<?xml version="1.0" ?><!-- Uploaded to: SVG Repo, www.svgrepo.com, Generator: SVG Repo Mixer Tools -->
<svg fill="#000000" width="800px" height="800px" viewBox="0 0 32 32" id="banana" version="1.1" xml:space="preserve" xmlns="http://www.w3.org/2000/svg" xmlns:xlink="http://www.w3.org/1999/xlink"><path d="M24.5,9.8l1.3-3.9v0c0.3-0.9,0.2-1.8-0.3-2.5C24.9,2.5,23.8,2,22.6,2h-1.1c-0.4,0-0.8,0.2-1.1,0.5C20.1,2.9,19.9,3.4,20,4  l0.6,6c-0.1,3.9-1.6,7.5-4.4,10.2c-2.8,2.8-5.1,4-8.1,4.3C7,24.6,6.1,25.4,6,26.4c-0.2,1,0.4,2,1.3,2.5c1.8,0.8,3.6,1.2,5.4,1.2  c3.3,0,6.6-1.4,9.3-4.1C26.2,21.7,27.3,15.1,24.5,9.8z M22.6,4c0.6,0,1.1,0.2,1.3,0.5C24,4.7,24.1,4.9,24,5.2l-1,3c0,0,0,0,0,0  c-0.1,0-0.2,0-0.4,0c0,0,0,0,0,0c0,0,0,0,0,0c-0.1,0-0.1,0-0.2,0L22,4H22.6z M20.6,24.6c-3.6,3.6-8,4.5-12.4,2.5  c-0.1,0-0.2-0.1-0.2-0.3c0-0.1,0.1-0.2,0.3-0.3c3.5-0.4,6.2-1.8,9.3-4.9c3-3,4.8-7,5-11.3c0,0,0,0,0,0c0,0,0,0.1,0.1,0.1  C25.1,15,24.3,20.8,20.6,24.6z"/></svg>