<?xml version="1.0" encoding="iso-8859-1"?>
<!-- Uploaded to: SVG Repo, www.svgrepo.com, Generator: SVG Repo Mixer Tools -->
<svg version="1.1" id="Layer_1" xmlns="http://www.w3.org/2000/svg" xmlns:xlink="http://www.w3.org/1999/xlink" 
	 viewBox="0 0 511.989 511.989" xml:space="preserve">
<path style="fill:#ED5564;" d="M391.523,0.001L255.994,15.063L0,271.057l240.933,240.932l255.994-255.994l15.062-135.521
	L391.523,0.001z M406.71,135.295c-4.047,4.047-9.405,6.273-15.124,6.273c-5.656,0-10.969-2.203-14.969-6.195
	c-8.266-8.273-8.234-21.773,0.078-30.085c4.047-4.047,9.422-6.273,15.125-6.273c5.656,0,10.968,2.195,14.968,6.195
	C415.069,113.482,415.022,126.974,406.71,135.295z"/>
<path style="fill:#DA4453;" d="M414.335,97.663c-6.219-6.211-14.359-9.32-22.515-9.32c-8.203,0.008-16.406,3.141-22.672,9.398
	c-12.484,12.499-12.531,32.726-0.078,45.178c6.219,6.211,14.359,9.312,22.516,9.312c8.202,0,16.405-3.133,22.671-9.391
	C426.74,130.342,426.787,110.115,414.335,97.663z M399.163,127.756c-2.733,2.734-5.921,3.148-7.577,3.148
	c-1.625,0-4.75-0.398-7.422-3.07c-4.125-4.117-4.078-10.852,0.078-15.008c2.734-2.734,5.922-3.148,7.578-3.148l0,0
	c1.625,0,4.75,0.398,7.421,3.07C403.366,116.865,403.319,123.592,399.163,127.756z"/>
<rect x="141.021" y="307.055" transform="matrix(-0.7071 -0.7071 0.7071 -0.7071 55.6137 701.1371)" style="fill:#7F4545;" width="63.991" height="63.991"/>
<polygon style="fill:#8CC153;" points="112.654,263.612 301.213,210.816 248.416,399.367 "/>
<polygon style="fill:#A0D468;" points="188.09,218.371 346.476,165.575 293.682,323.962 "/>
</svg>