<?xml version="1.0" encoding="iso-8859-1"?>
<!-- Uploaded to: SVG Repo, www.svgrepo.com, Generator: SVG Repo Mixer Tools -->
<svg height="800px" width="800px" version="1.1" id="Layer_1" xmlns="http://www.w3.org/2000/svg" xmlns:xlink="http://www.w3.org/1999/xlink" 
	 viewBox="0 0 502.138 502.138" xml:space="preserve">
<g>
	<path style="fill:#40596B;" d="M487.109,287.118l-9.404,2.09l-43.886,11.494l-10.449-39.706l53.29-13.584h1.045
		c10.449-2.09,20.898,4.18,24.033,14.629C503.827,272.489,497.558,283.983,487.109,287.118z"/>
	<path style="fill:#40596B;" d="M78.553,270.399L58.7,305.926l-34.482-18.808l-13.584-7.314
		c-9.404-5.224-13.584-17.763-8.359-27.167c4.18-8.359,13.584-11.494,21.943-10.449c2.09,0,4.18,1.045,5.224,2.09L78.553,270.399z"
		/>
</g>
<g>
	<path style="fill:#334A5E;" d="M30.488,245.322l48.065,25.078L58.7,305.926l-34.482-18.808v-44.931
		C26.309,243.232,28.398,244.277,30.488,245.322z"/>
	<path style="fill:#334A5E;" d="M477.705,247.412v41.796l-43.886,11.494l-10.449-39.706l53.29-13.584
		C476.66,247.412,476.66,247.412,477.705,247.412z"/>
	<circle style="fill:#334A5E;" cx="250.962" cy="40.522" r="27.167"/>
</g>
<path style="fill:#F2F2F2;" d="M460.986,204.571H40.937h-1.045v261.224c0,11.494,9.404,21.943,21.943,21.943h378.253
	c12.539,0,21.943-9.404,21.943-21.943V204.571C460.986,204.571,460.986,204.571,460.986,204.571z"/>
<path style="fill:#E2E2E2;" d="M39.892,435.493v31.347c0,12.539,9.404,21.943,21.943,21.943h378.253
	c12.539,0,21.943-9.404,21.943-21.943v-31.347H39.892z"/>
<path style="fill:#40596B;" d="M266.635,57.24h-31.347c-80.457,0-154.645,42.841-195.396,112.849l0,0h421.094l0,0
	C421.28,100.081,347.092,57.24,266.635,57.24z"/>
<g>
	<path style="fill:#CDD6E0;" d="M460.986,170.089H40.937c-9.404,0-16.718,7.314-16.718,16.718v1.045
		c0,9.404,7.314,16.718,16.718,16.718h421.094c9.404,0,16.718-7.314,16.718-16.718v-1.045
		C477.705,177.403,470.39,170.089,460.986,170.089z"/>
	<path style="fill:#CDD6E0;" d="M462.031,187.852v33.437h-1.045H40.937h-1.045v-33.437H462.031z"/>
</g>
<path style="fill:#E2E2E2;" d="M462.031,204.571v16.718h-1.045H40.937h-1.045v-16.718h1.045h419.004
	C460.986,204.571,460.986,204.571,462.031,204.571z"/>
</svg>